<svg width="31" height="26" viewBox="0 0 31 26" fill="none" xmlns="http://www.w3.org/2000/svg">
    <path fill-rule="evenodd" clip-rule="evenodd" d="M15.3437 5.33804L16.1538 4.51465C19.2003 1.41803 22.413 1.1309 24.8065 2.20126C27.2652 3.3008 29.0511 5.90669 29.0511 8.99863C29.0511 12.1667 27.7268 14.6128 25.817 16.7168C24.2424 18.4514 22.3363 19.8891 20.4746 21.2933C20.0321 21.6271 19.5921 21.9589 19.1597 22.2925C18.3788 22.8947 17.6834 23.4223 17.0134 23.8053C16.3436 24.1883 15.8037 24.3636 15.3438 24.3636C14.8838 24.3636 14.3439 24.1883 13.6741 23.8053C13.004 23.4223 12.3087 22.8947 11.5278 22.2924C11.0953 21.9589 10.6554 21.6271 10.2129 21.2933C8.35121 19.8891 6.44512 18.4515 4.87049 16.7168C2.96065 14.6128 1.63636 12.1667 1.63636 8.99863C1.63636 5.9067 3.42228 3.3008 5.88101 2.20126C8.27449 1.1309 11.4872 1.41803 14.5337 4.51464L15.3437 5.33804ZM15.6772 3.38968C22.2917 -2.90501 30.1875 2.05369 30.1875 8.99863C30.1875 15.3957 25.2918 19.086 21.1236 22.2279C20.6903 22.5545 20.2649 22.8751 19.8537 23.1923C18.3125 24.3809 16.8281 25.5 15.3438 25.5C13.8594 25.5 12.375 24.3809 10.8338 23.1923C10.4226 22.8751 9.99718 22.5545 9.56394 22.2279C5.3957 19.086 0.5 15.3957 0.5 8.99863C0.5 2.05369 8.39587 -2.905 15.0103 3.38968C15.1219 3.49581 15.233 3.60513 15.3438 3.7177C15.4545 3.60513 15.5656 3.49581 15.6772 3.38968Z" fill="#140702"/>
    </svg>
    