<svg width="21" height="20" viewBox="0 0 21 20" fill="none" xmlns="http://www.w3.org/2000/svg">
    <g clip-path="url(#clip0_108_7)">
    <path d="M10.5 0C4.97734 0 0.5 4.47714 0.5 10C0.5 15.5229 4.97734 20 10.5 20C16.0227 20 20.5 15.5229 20.5 10C20.5 4.47714 16.0227 0 10.5 0ZM15.5725 11.0815C16.0386 11.5368 16.5317 11.9652 16.9501 12.4675C17.1355 12.6897 17.3102 12.9195 17.4432 13.1779C17.6331 13.5464 17.4616 13.9505 17.1318 13.9724L15.0831 13.972C14.554 14.0158 14.1329 13.8024 13.778 13.4406C13.4946 13.1523 13.2317 12.8444 12.9587 12.5463C12.8472 12.4239 12.7298 12.3087 12.5898 12.2181C12.3105 12.0364 12.0679 12.0921 11.9079 12.3838C11.7448 12.6807 11.7076 13.0097 11.692 13.3402C11.6697 13.8232 11.524 13.9495 11.0393 13.9722C10.0036 14.0207 9.02092 13.8635 8.10757 13.3414C7.30184 12.8808 6.67821 12.2308 6.13478 11.4948C5.07657 10.0602 4.26614 8.48552 3.53795 6.86568C3.37407 6.50087 3.49396 6.30568 3.89642 6.29811C4.56506 6.28522 5.23371 6.28685 5.90235 6.29749C6.17448 6.30179 6.35453 6.45749 6.45908 6.71427C6.82041 7.60327 7.26338 8.44911 7.81847 9.23356C7.96639 9.44246 8.11739 9.65074 8.33243 9.79826C8.56977 9.96113 8.75064 9.90731 8.86256 9.64235C8.93417 9.47396 8.96506 9.29391 8.98061 9.11345C9.03381 8.49535 9.04015 7.87744 8.94808 7.26179C8.89079 6.87652 8.67412 6.62772 8.29008 6.55488C8.09448 6.51785 8.12312 6.44542 8.21826 6.33371C8.38338 6.14056 8.53806 6.02107 8.84721 6.02107L11.1619 6.02067C11.5267 6.09228 11.6085 6.25596 11.6581 6.62343L11.6601 9.1957C11.6558 9.3379 11.7315 9.75939 11.9869 9.85248C12.1915 9.92 12.3265 9.75591 12.4488 9.62639C13.0039 9.03734 13.3994 8.3421 13.7536 7.62251C13.9099 7.30517 14.0448 6.97678 14.1757 6.64778C14.2731 6.4045 14.4245 6.28481 14.6991 6.2889L16.928 6.29156C16.9937 6.29156 17.0604 6.29217 17.1255 6.30343C17.5011 6.36767 17.604 6.52931 17.4878 6.89575C17.3049 7.47151 16.9495 7.9511 16.6021 8.43192C16.2297 8.9467 15.8326 9.44348 15.4639 9.96051C15.1251 10.4331 15.1519 10.6711 15.5725 11.0815Z" fill="#140702"/>
    </g>
    <defs>
    <clipPath id="clip0_108_7">
    <rect width="20" height="20" fill="white" transform="translate(0.5)"/>
    </clipPath>
    </defs>
    </svg>
    